# xmcd
#
# Track frame offsets:
#	150
#	14805
#	31285
#	45510
#	58546
#	74132
#	91518
#	103862
#	120455
#	135913
#	156628
#	168539
#
# Disc length: 2444 seconds
#
# Revision: 1
# Processed by: cddbd v1.5.2PL0 Copyright (c) Steve Scherf et al.
# Submitted via: audiograbber 1.83.01
#
DISCID=a2098a0c
DTITLE=Bob Nierstedt - Home Cookin Bob Nierstedt
DYEAR=1900
DGENRE=
TTITLE0=Winters Song
TTITLE1=Georgia Line
TTITLE2=A Dollar A Song
TTITLE3=I Still Wonder
TTITLE4=No More Blues
TTITLE5=Anything Your Heart Desires
TTITLE6=Old Mexico
TTITLE7=Crazy Over You
TTITLE8=Two Nite Stands
TTITLE9=Men Don´t Give Like Women Do
TTITLE10=Think Again
TTITLE11=Why
EXTD=
EXTT0=
EXTT1=
EXTT2=
EXTT3=
EXTT4=
EXTT5=
EXTT6=
EXTT7=
EXTT8=
EXTT9=
EXTT10=
EXTT11=
PLAYORDER=
